<svg height="2430" width="720" xmlns="http://www.w3.org/2000/svg">
<rect height="2430" fill="#555" width="720"></rect>
<text fill="#7f7" font-family="Courier New" font-size="12" xml:space="preserve">
<tspan x="10" y="26">29 megabytes installed</tspan>
<tspan x="10" y="42"></tspan>
<tspan x="10" y="58">node_modules</tspan>
<tspan x="10" y="74">└─┬ stackvis@0.4.0 </tspan>
<tspan x="10" y="90">  ├─┬ bunyan@1.8.1 </tspan>
<tspan x="10" y="106">  │ ├─┬ dtrace-provider@0.6.0 </tspan>
<tspan x="10" y="122">  │ │ └── nan@2.6.2 </tspan>
<tspan x="10" y="138">  │ ├── moment@2.18.1 </tspan>
<tspan x="10" y="154">  │ ├─┬ mv@2.1.1 </tspan>
<tspan x="10" y="170">  │ │ ├─┬ mkdirp@0.5.1 </tspan>
<tspan x="10" y="186">  │ │ │ └── minimist@0.0.8 </tspan>
<tspan x="10" y="202">  │ │ ├── ncp@2.0.0 </tspan>
<tspan x="10" y="218">  │ │ └─┬ rimraf@2.4.5 </tspan>
<tspan x="10" y="234">  │ │   └─┬ glob@6.0.4 </tspan>
<tspan x="10" y="250">  │ │     ├── inflight@1.0.6 </tspan>
<tspan x="10" y="266">  │ │     ├─┬ minimatch@3.0.3 </tspan>
<tspan x="10" y="282">  │ │     │ └─┬ brace-expansion@1.1.7 </tspan>
<tspan x="10" y="298">  │ │     │   ├── balanced-match@0.4.2 </tspan>
<tspan x="10" y="314">  │ │     │   └── concat-map@0.0.1 </tspan>
<tspan x="10" y="330">  │ │     └── path-is-absolute@1.0.1 </tspan>
<tspan x="10" y="346">  │ └── safe-json-stringify@1.0.4 </tspan>
<tspan x="10" y="362">  ├── carrier@0.1.7 </tspan>
<tspan x="10" y="378">  ├── hogan.js@2.0.0 </tspan>
<tspan x="10" y="394">  ├─┬ jsprim@0.5.1 </tspan>
<tspan x="10" y="410">  │ ├── extsprintf@1.0.2 </tspan>
<tspan x="10" y="426">  │ └── json-schema@0.2.2 </tspan>
<tspan x="10" y="442">  ├─┬ manta@3.0.0 </tspan>
<tspan x="10" y="458">  │ ├── assert-plus@1.0.0 </tspan>
<tspan x="10" y="474">  │ ├── backoff@2.3.0 </tspan>
<tspan x="10" y="490">  │ ├── clone@0.1.19 </tspan>
<tspan x="10" y="506">  │ ├─┬ cmdln@1.3.1 </tspan>
<tspan x="10" y="522">  │ │ └── assert-plus@0.1.3 </tspan>
<tspan x="10" y="538">  │ ├─┬ dashdash@1.3.2 </tspan>
<tspan x="10" y="554">  │ │ └── assert-plus@0.1.2 </tspan>
<tspan x="10" y="570">  │ ├── extsprintf@1.3.0 </tspan>
<tspan x="10" y="586">  │ ├─┬ jsprim@1.4.0 </tspan>
<tspan x="10" y="602">  │ │ ├── extsprintf@1.0.2 </tspan>
<tspan x="10" y="618">  │ │ ├── json-schema@0.2.3 </tspan>
<tspan x="10" y="634">  │ │ └── verror@1.3.6 </tspan>
<tspan x="10" y="650">  │ ├─┬ lomstream@1.1.0 </tspan>
<tspan x="10" y="666">  │ │ ├── assert-plus@0.1.5 </tspan>
<tspan x="10" y="682">  │ │ ├── extsprintf@1.3.0 </tspan>
<tspan x="10" y="698">  │ │ └─┬ vstream@0.1.0 </tspan>
<tspan x="10" y="714">  │ │   ├── assert-plus@0.1.5 </tspan>
<tspan x="10" y="730">  │ │   └── extsprintf@1.2.0 </tspan>
<tspan x="10" y="746">  │ ├── lstream@0.0.4 </tspan>
<tspan x="10" y="762">  │ ├── mime@1.2.11 </tspan>
<tspan x="10" y="778">  │ ├── moment@2.13.0 </tspan>
<tspan x="10" y="794">  │ ├─┬ once@1.3.3 </tspan>
<tspan x="10" y="810">  │ │ └── wrappy@1.0.2 </tspan>
<tspan x="10" y="826">  │ ├── path-platform@0.0.1 </tspan>
<tspan x="10" y="842">  │ ├─┬ progbar@1.2.0 </tspan>
<tspan x="10" y="858">  │ │ ├── assert-plus@0.1.5 </tspan>
<tspan x="10" y="874">  │ │ ├── readable-stream@1.0.34 </tspan>
<tspan x="10" y="890">  │ │ └── sprintf@0.1.5 </tspan>
<tspan x="10" y="906">  │ ├─┬ readable-stream@1.1.14 </tspan>
<tspan x="10" y="922">  │ │ ├── inherits@2.0.3 </tspan>
<tspan x="10" y="938">  │ │ ├── isarray@0.0.1 </tspan>
<tspan x="10" y="954">  │ │ └── string_decoder@0.10.31 </tspan>
<tspan x="10" y="970">  │ ├─┬ restify-clients@1.3.3 </tspan>
<tspan x="10" y="986">  │ │ ├─┬ backoff@2.5.0 </tspan>
<tspan x="10" y="1002">  │ │ │ └── precond@0.2.3 </tspan>
<tspan x="10" y="1018">  │ │ ├── keep-alive-agent@0.0.1 </tspan>
<tspan x="10" y="1034">  │ │ ├── lodash@4.17.4 </tspan>
<tspan x="10" y="1050">  │ │ ├─┬ lru-cache@4.0.2 </tspan>
<tspan x="10" y="1066">  │ │ │ ├── pseudomap@1.0.2 </tspan>
<tspan x="10" y="1082">  │ │ │ └── yallist@2.1.2 </tspan>
<tspan x="10" y="1098">  │ │ ├── mime@1.3.4 </tspan>
<tspan x="10" y="1114">  │ │ ├── node-uuid@1.4.8 </tspan>
<tspan x="10" y="1130">  │ │ ├── once@1.4.0 </tspan>
<tspan x="10" y="1146">  │ │ ├─┬ restify-errors@3.1.0 </tspan>
<tspan x="10" y="1162">  │ │ │ ├── assert-plus@0.2.0 </tspan>
<tspan x="10" y="1178">  │ │ │ ├── lodash@3.10.1 </tspan>
<tspan x="10" y="1194">  │ │ │ └─┬ verror@1.9.0 </tspan>
<tspan x="10" y="1210">  │ │ │   ├── assert-plus@1.0.0 </tspan>
<tspan x="10" y="1226">  │ │ │   └── extsprintf@1.3.0 </tspan>
<tspan x="10" y="1242">  │ │ ├── semver@5.3.0 </tspan>
<tspan x="10" y="1258">  │ │ └── tunnel-agent@0.4.3 </tspan>
<tspan x="10" y="1274">  │ ├─┬ showdown@1.4.4 </tspan>
<tspan x="10" y="1290">  │ │ └─┬ yargs@3.32.0 </tspan>
<tspan x="10" y="1306">  │ │   ├── camelcase@2.1.1 </tspan>
<tspan x="10" y="1322">  │ │   ├─┬ cliui@3.2.0 </tspan>
<tspan x="10" y="1338">  │ │   │ ├─┬ strip-ansi@3.0.1 </tspan>
<tspan x="10" y="1354">  │ │   │ │ └── ansi-regex@2.1.1 </tspan>
<tspan x="10" y="1370">  │ │   │ └── wrap-ansi@2.1.0 </tspan>
<tspan x="10" y="1386">  │ │   ├── decamelize@1.2.0 </tspan>
<tspan x="10" y="1402">  │ │   ├─┬ os-locale@1.4.0 </tspan>
<tspan x="10" y="1418">  │ │   │ └─┬ lcid@1.0.0 </tspan>
<tspan x="10" y="1434">  │ │   │   └── invert-kv@1.0.0 </tspan>
<tspan x="10" y="1450">  │ │   ├─┬ string-width@1.0.2 </tspan>
<tspan x="10" y="1466">  │ │   │ ├── code-point-at@1.1.0 </tspan>
<tspan x="10" y="1482">  │ │   │ └─┬ is-fullwidth-code-point@1.0.0 </tspan>
<tspan x="10" y="1498">  │ │   │   └── number-is-nan@1.0.1 </tspan>
<tspan x="10" y="1514">  │ │   ├── window-size@0.1.4 </tspan>
<tspan x="10" y="1530">  │ │   └── y18n@3.2.1 </tspan>
<tspan x="10" y="1546">  │ ├─┬ smartdc-auth@2.5.2 </tspan>
<tspan x="10" y="1562">  │ │ ├── bunyan@1.5.1 </tspan>
<tspan x="10" y="1578">  │ │ ├── clone@0.1.5 </tspan>
<tspan x="10" y="1594">  │ │ ├─┬ dashdash@1.10.1 </tspan>
<tspan x="10" y="1610">  │ │ │ └── assert-plus@0.1.5 </tspan>
<tspan x="10" y="1626">  │ │ ├─┬ http-signature@1.1.1 </tspan>
<tspan x="10" y="1642">  │ │ │ ├── assert-plus@0.2.0 </tspan>
<tspan x="10" y="1658">  │ │ │ └─┬ jsprim@1.4.0 </tspan>
<tspan x="10" y="1674">  │ │ │   ├── assert-plus@1.0.0 </tspan>
<tspan x="10" y="1690">  │ │ │   └── json-schema@0.2.3 </tspan>
<tspan x="10" y="1706">  │ │ ├── once@1.3.0 </tspan>
<tspan x="10" y="1722">  │ │ ├─┬ sshpk@1.13.0 </tspan>
<tspan x="10" y="1738">  │ │ │ ├── asn1@0.2.3 </tspan>
<tspan x="10" y="1754">  │ │ │ ├── bcrypt-pbkdf@1.0.1 </tspan>
<tspan x="10" y="1770">  │ │ │ ├── dashdash@1.14.1 </tspan>
<tspan x="10" y="1786">  │ │ │ ├── ecc-jsbn@0.1.1 </tspan>
<tspan x="10" y="1802">  │ │ │ ├── getpass@0.1.6 </tspan>
<tspan x="10" y="1818">  │ │ │ ├── jodid25519@1.0.2 </tspan>
<tspan x="10" y="1834">  │ │ │ ├── jsbn@0.1.1 </tspan>
<tspan x="10" y="1850">  │ │ │ └── tweetnacl@0.14.5 </tspan>
<tspan x="10" y="1866">  │ │ ├─┬ sshpk-agent@1.5.0 </tspan>
<tspan x="10" y="1882">  │ │ │ ├─┬ mooremachine@2.1.0 </tspan>
<tspan x="10" y="1898">  │ │ │ │ ├── assert-plus@0.2.0 </tspan>
<tspan x="10" y="1914">  │ │ │ │ └── dtrace-provider@0.8.1 </tspan>
<tspan x="10" y="1930">  │ │ │ └─┬ readable-stream@2.2.9 </tspan>
<tspan x="10" y="1946">  │ │ │   ├── buffer-shims@1.0.0 </tspan>
<tspan x="10" y="1962">  │ │ │   ├── isarray@1.0.0 </tspan>
<tspan x="10" y="1978">  │ │ │   ├── process-nextick-args@1.0.7 </tspan>
<tspan x="10" y="1994">  │ │ │   ├── string_decoder@1.0.0 </tspan>
<tspan x="10" y="2010">  │ │ │   └── util-deprecate@1.0.2 </tspan>
<tspan x="10" y="2026">  │ │ └─┬ vasync@1.4.3 </tspan>
<tspan x="10" y="2042">  │ │   ├─┬ jsprim@0.3.0 </tspan>
<tspan x="10" y="2058">  │ │   │ ├── extsprintf@1.0.0 </tspan>
<tspan x="10" y="2074">  │ │   │ └── verror@1.3.3 </tspan>
<tspan x="10" y="2090">  │ │   └── verror@1.1.0 </tspan>
<tspan x="10" y="2106">  │ ├─┬ tar@2.2.1 </tspan>
<tspan x="10" y="2122">  │ │ ├── block-stream@0.0.9 </tspan>
<tspan x="10" y="2138">  │ │ └─┬ fstream@1.0.11 </tspan>
<tspan x="10" y="2154">  │ │   └── graceful-fs@4.1.11 </tspan>
<tspan x="10" y="2170">  │ ├── uuid@2.0.3 </tspan>
<tspan x="10" y="2186">  │ ├─┬ vasync@1.6.4 </tspan>
<tspan x="10" y="2202">  │ │ └─┬ verror@1.6.0 </tspan>
<tspan x="10" y="2218">  │ │   └── extsprintf@1.2.0 </tspan>
<tspan x="10" y="2234">  │ ├─┬ verror@1.9.0 </tspan>
<tspan x="10" y="2250">  │ │ └── core-util-is@1.0.2 </tspan>
<tspan x="10" y="2266">  │ └─┬ watershed@0.3.3 </tspan>
<tspan x="10" y="2282">  │   └── readable-stream@1.0.2 </tspan>
<tspan x="10" y="2298">  ├── node-uuid@1.4.1 </tspan>
<tspan x="10" y="2314">  ├── posix-getopt@1.0.0 </tspan>
<tspan x="10" y="2330">  ├─┬ vasync@1.4.0 </tspan>
<tspan x="10" y="2346">  │ ├─┬ jsprim@0.3.0 </tspan>
<tspan x="10" y="2362">  │ │ ├── extsprintf@1.0.0 </tspan>
<tspan x="10" y="2378">  │ │ └── verror@1.3.3 </tspan>
<tspan x="10" y="2394">  │ └── verror@1.1.0 </tspan>
<tspan x="10" y="2410">  └── verror@1.3.6</tspan>
</text>
</svg>
